#!OML:ASF H:\Terrain\Patient Classification 1\Walking\steve\steve.ASF
:FULLY-SPECIFIED
:DEGREES
16
root 7.63426 15.1753 -33.5051 5.81439 0.78509 4.80408
lowerback -1.17621 -1.13678 -5.30263
upperback -2.82694 -1.52447 0.327486
thorax -2.10809 -0.647857 3.31775
lowerneck -6.21491 0.817606 -1.88171
upperneck 15.1574 0.874385 3.04012
head 5.56535 0.532473 1.3209
rclavicle -1.49803e-014 -5.1684e-015
rhumerus -58.4148 -9.83046 -74.8763
rradius 24.5636
rwrist 6.49556
rhand -21.9614 -30.1039
rfingers 7.12502
rthumb 4.44607 -60.0372
lclavicle -1.49803e-014 -5.1684e-015
lhumerus -7.31376 -25.5325 88.4546
lradius 49.4476
lwrist 18.8018
lhand -25.0434 -19.2411
lfingers 7.12502
lthumb 1.46962 10.7336
rfemur -47.0485 3.06088 16.1661
rtibia 31.266
rfoot -13.3906 2.47415
rtoes -5.44295
lfemur 12.6431 4.53377 -28.6188
ltibia 7.19717
lfoot -10.0209 -12.2076
ltoes 4.84794
17
root 7.63334 15.1493 -33.3204 5.73413 1.50416 5.05229
lowerback -1.15164 -1.34105 -5.52291
upperback -2.70851 -1.79464 0.370514
thorax -1.96657 -0.784356 3.48471
lowerneck -6.29424 0.691475 -2.24428
upperneck 14.8329 0.731783 3.1875
head 5.47912 0.453144 1.41554
rclavicle -8.6285e-015 1.19271e-014
rhumerus -58.5248 -10.0276 -74.6165
rradius 24.5963
rwrist 6.77209
rhand -21.5039 -29.8747
rfingers 7.12502
rthumb 4.8878 -59.7983
lclavicle -8.6285e-015 1.19271e-014
lhumerus -6.79659 -25.8671 88.3852
lradius 49.9348
lwrist 19.0546
lhand -24.8806 -19.116
lfingers 7.12502
lthumb 1.62684 10.8575
rfemur -47.1877 3.38676 15.2555
rtibia 30.3059
rfoot -13.9658 2.07116
rtoes -3.53382
lfemur 17.1561 3.72064 -28.8138
ltibia 2.54444e-014
lfoot -7.35574 -10.518
ltoes 1.05097
18
root 7.6371 15.1429 -33.1407 5.89562 2.31257 5.06487
lowerback -1.20771 -1.49311 -5.29097
upperback -2.75815 -1.99448 0.395228
thorax -1.97192 -0.887424 3.37908
lowerneck -6.29468 0.468871 -2.36566
upperneck 14.6196 0.453677 3.14895
head 5.42075 0.308062 1.40392
rclavicle -3.66012e-014 -1.82882e-014
rhumerus -58.8509 -10.4073 -74.1196
rradius 24.6336
rwrist 7.65938
rhand -20.3704 -30.3147
rfingers 7.12502
rthumb 5.98224 -60.2103
lclavicle -3.66012e-014 -1.82882e-014
lhumerus -6.52755 -26.3978 88.475
lradius 50.4378
lwrist 19.3093
lhand -24.7498 -19.3778
lfingers 7.12502
lthumb 1.75317 10.5948
rfemur -47.4658 2.89602 14.9925
rtibia 29.3376
rfoot -14.0825 2.52314
rtoes -1.53057
lfemur 17.6121 2.8136 -28.8029
ltibia -3.81667e-014
lfoot -7.80627 -10.2423
ltoes -2.12187
19
root 7.64233 15.1014 -32.9592 5.89539 2.92028 5.0635
lowerback -1.04136 -1.58279 -5.03649
upperback -2.81301 -2.12397 0.432544
thorax -2.11598 -0.951892 3.28093
lowerneck -6.27864 0.370985 -2.31465
upperneck 14.5665 0.323853 3.09193
head 5.40567 0.24354 1.36884
rclavicle 2.05773e-014 -8.74653e-015
rhumerus -59.2988 -10.2721 -74.1877
rradius 25.0396
rwrist 7.31401
rhand -20.1703 -31.8816
rfingers 7.12502
rthumb 6.1754 -61.7716
lclavicle 2.05773e-014 -8.74653e-015
lhumerus -6.4786 -26.8231 88.6775
lradius 51.0607
lwrist 19.4102
lhand -24.9859 -19.5761
lfingers 7.12502
lthumb 1.52517 10.3982
rfemur -47.5928 2.51997 14.8612
rtibia 28.317
rfoot -14.0089 2.69597
rtoes -0.679714
lfemur 18.3789 2.12815 -28.7826
ltibia -1.90833e-014
lfoot -7.49319 -9.96044
ltoes 1.27434
20
root 7.64409 15.0735 -32.7675 5.73882 3.50114 5.21295
lowerback -0.772926 -1.7713 -5.14599
upperback -2.77648 -2.38936 0.496871
thorax -2.19787 -1.08 3.41744
lowerneck -6.4471 0.516917 -1.84479
upperneck 14.7037 0.48921 2.93192
head 5.47476 0.340193 1.25356
rclavicle 1.29707e-014 8.74653e-015
rhumerus -59.6491 -10.0185 -74.3756
rradius 25.5016
rwrist 6.99187
rhand -18.6432 -34.5541
rfingers 7.12502
rthumb 7.64953 -64.3957
lclavicle 1.29707e-014 8.74653e-015
lhumerus -6.35871 -26.8505 88.784
lradius 51.5766
lwrist 19.3133
lhand -24.8633 -19.4139
lfingers 7.12502
lthumb 1.64363 10.5595
rfemur -47.4593 2.337 14.5615
rtibia 27.249
rfoot -14.0868 1.9775
rtoes -2.54088
lfemur 19.3234 1.46932 -28.8725
ltibia 5.725e-014
lfoot -7.71694 -9.30506
ltoes -1.65822
21
root 7.63574 15.0608 -32.573 5.8789 4.0693 5.23717
lowerback -0.804849 -1.91405 -5.23148
upperback -2.82587 -2.57875 0.55168
thorax -2.20715 -1.17101 3.52232
lowerneck -6.32279 0.375066 -1.87214
upperneck 14.2858 0.315714 2.86415
head 5.32821 0.24763 1.22216
rclavicle -4.9603e-015 7.95139e-015
rhumerus -60.1546 -10.3472 -73.9869
rradius 25.5927
rwrist 8.00532
rhand -14.8955 -36.3266
rfingers 7.12502
rthumb 11.2655 -66.004
lclavicle -4.9603e-015 7.95139e-015
lhumerus -6.20398 -27.0931 88.8344
lradius 51.882
lwrist 19.2352
lhand -24.4091 -19.4331
lfingers 7.12502
lthumb 2.08225 10.5365
rfemur -47.6157 1.93761 14.5373
rtibia 26.2911
rfoot -13.9689 1.57237
rtoes -2.76127
lfemur 19.7819 0.758405 -28.7366
ltibia 6.36111e-014
lfoot -7.72316 -9.36701
ltoes -3.17833
22
root 7.63291 15.0059 -32.3725 6.01204 4.7547 5.25348
lowerback -0.945123 -2.0482 -5.19933
upperback -2.83618 -2.74776 0.647225
thorax -2.11904 -1.25746 3.59775
lowerneck -6.2938 0.335189 -1.74171
upperneck 14.1138 0.256283 2.81463
head 5.27186 0.22167 1.18017
rclavicle 3.2023e-014 4.77083e-015
rhumerus -60.5744 -10.5055 -73.6837
rradius 25.4761
rwrist 7.88859
rhand -15.1917 -35.0554
rfingers 7.12502
rthumb 10.9799 -64.7483
lclavicle 3.2023e-014 4.77083e-015
lhumerus -6.11293 -27.4795 89.0343
lradius 52.1596
lwrist 19.0733
lhand -24.548 -19.6383
lfingers 7.12502
lthumb 1.94815 10.3326
rfemur -47.7564 1.1319 14.7736
rtibia 25.4904
rfoot -13.663 1.5599
rtoes -3.80041
lfemur 20.3031 -0.0669167 -28.5788
ltibia -6.99722e-014
lfoot -6.92381 -9.9809
ltoes 2.398
23
root 7.63709 14.9672 -32.1716 5.96577 5.51621 5.4386
lowerback -0.839479 -2.21873 -5.26551
upperback -2.76599 -2.97836 0.737443
thorax -2.07511 -1.37314 3.73034
lowerneck -6.61013 0.308274 -1.64914
upperneck 14.1593 0.232657 2.66979
head 5.34123 0.207607 1.11966
rclavicle -3.13117e-014 -3.4191e-014
rhumerus -60.795 -10.4841 -73.5411
rradius 25.6496
rwrist 7.10832
rhand -18.2354 -32.6457
rfingers 7.12502
rthumb 8.04317 -62.4726
lclavicle -3.13117e-014 -3.4191e-014
lhumerus -5.98278 -27.6821 89.3265
lradius 52.4062
lwrist 18.7545
lhand -24.8138 -19.8709
lfingers 7.12502
lthumb 1.69138 10.1022
rfemur -47.656 0.19571 14.8488
rtibia 24.9988
rfoot -13.4256 1.63496
rtoes -7.64769
lfemur 21.0647 -0.939667 -28.6412
ltibia -3.49861e-014
lfoot -6.34062 -10.0179
ltoes 4.90966
24
root 7.63552 14.9687 -31.9755 6.00092 6.16147 5.54002
lowerback -0.750875 -2.35394 -5.25172
upperback -2.70542 -3.16121 0.799499
thorax -2.04071 -1.4665 3.78875
lowerneck -6.93641 0.142853 -1.71936
upperneck 14.027 0.0441653 2.52376
head 5.36054 0.103774 1.07361
rclavicle 4.25213e-015 -4.77083e-015
rhumerus -60.857 -10.7562 -73.2187
rradius 25.8112
rwrist 7.24656
rhand -19.3049 -32.2202
rfingers 7.12502
rthumb 7.01086 -62.084
lclavicle 4.25213e-015 -4.77083e-015
lhumerus -5.82797 -27.8454 89.5243
lradius 52.7355
lwrist 18.5216
lhand -24.5793 -20.2083
lfingers 7.12502
lthumb 1.91788 9.76287
rfemur -47.601 0.439241 14.0952
rtibia 24.9489
rfoot -14.0787 1.46165
rtoes -7.82011
lfemur 21.6472 -1.71033 -28.6085
ltibia -1.90833e-014
lfoot -6.30436 -9.77599
ltoes 3.5746
25
root 7.63337 14.9611 -31.7758 6.00419 6.65689 5.51575
lowerback -0.716502 -2.50676 -5.16018
upperback -2.64771 -3.36371 0.880811
thorax -1.97933 -1.57183 3.82096
lowerneck -6.97099 0.0206947 -1.72448
upperneck 13.6527 -0.118083 2.54903
head 5.25398 0.0252347 1.06986
rclavicle 1.82851e-014 7.15625e-015
rhumerus -60.8568 -10.9285 -72.9366
rradius 25.6701
rwrist 7.69454
rhand -19.2316 -32.773
rfingers 7.12502
rthumb 7.0816 -62.6345
lclavicle 1.82851e-014 7.15625e-015
lhumerus -5.89403 -27.8794 89.5773
lradius 53.1674
lwrist 18.3907
lhand -24.251 -20.2183
lfingers 7.12502
lthumb 2.23492 9.74973
rfemur -47.5141 0.918615 13.394
rtibia 24.9868
rfoot -15.0485 1.02934
rtoes -6.54273
lfemur 22.2808 -2.30634 -28.5107
ltibia -2.54444e-014
lfoot -6.39433 -9.71934
ltoes 2.1305
26
root 7.63067 14.94 -31.5709 6.01704 6.98314 5.40908
lowerback -0.733873 -2.57509 -5.07663
upperback -2.57994 -3.45024 0.979994
thorax -1.88902 -1.61984 3.87333
lowerneck -7.01448 -0.00666058 -1.56397
upperneck 13.2526 -0.183731 2.66521
head 5.13891 0.00791581 1.07353
rclavicle -3.64304e-014 5.56597e-015
rhumerus -61.0984 -11.17 -72.661
rradius 25.6939
rwrist 8.17601
rhand -18.8728 -33.0919
rfingers 7.12502
rthumb 7.42796 -62.9415
lclavicle -3.64304e-014 5.56597e-015
lhumerus -6.09572 -27.9593 89.6536
lradius 53.4945
lwrist 18.0762
lhand -23.9588 -19.922
lfingers 7.12502
lthumb 2.51712 10.0429
rfemur -47.6728 1.13652 13.1797
rtibia 25.3942
rfoot -15.5897 0.496639
rtoes -7.66067
lfemur 23.0137 -2.72119 -28.3819
ltibia 0
lfoot -5.92733 -9.43878
ltoes 2.37783
27
root 7.62594 14.8659 -31.3626 6.1677 7.31066 5.30653
lowerback -0.81858 -2.585 -4.98909
upperback -2.55602 -3.4555 1.13626
thorax -1.81149 -1.62548 3.98064
lowerneck -7.07061 -0.119846 -1.75321
upperneck 12.7438 -0.305273 2.67937
head 4.9942 -0.0610202 1.09914
rclavicle 1.59463e-014 -1.11319e-014
rhumerus -61.4487 -11.3464 -72.3934
rradius 25.9763
rwrist 8.1356
rhand -18.6266 -32.7739
rfingers 7.12502
rthumb 7.66561 -62.6149
lclavicle 1.59463e-014 -1.11319e-014
lhumerus -6.41527 -27.9721 90.0359
lradius 53.8245
lwrist 17.4472
lhand -23.7407 -19.9944
lfingers 7.12502
lthumb 2.72777 9.96787
rfemur -48.1651 0.914831 13.4277
rtibia 25.9692
rfoot -15.6074 0.57019
rtoes -8.66721
lfemur 23.8963 -3.17593 -28.1951
ltibia -9.54166e-015
lfoot -4.55986 -9.22929
ltoes 7.7212
28
root 7.62215 14.7998 -31.1553 6.26094 7.75076 5.38403
lowerback -0.71137 -2.69197 -5.02047
upperback -2.54554 -3.60251 1.22953
thorax -1.83786 -1.69714 4.09913
lowerneck -7.0682 -0.175971 -1.65961
upperneck 12.2194 -0.363589 2.53005
head 4.83334 -0.0962826 1.03175
rclavicle -8.07563e-016 -3.97569e-015
rhumerus -61.6623 -11.358 -72.2358
rradius 26.1041
rwrist 7.58701
rhand -18.5668 -32.1402
rfingers 7.12502
rthumb 7.72325 -61.9792
lclavicle -8.07563e-016 -3.97569e-015
lhumerus -6.84287 -27.7742 90.3675
lradius 54.228
lwrist 16.9007
lhand -23.5735 -20.5478
lfingers 7.12502
lthumb 2.88923 9.41235
rfemur -48.4513 0.914578 13.1815
rtibia 26.6134
rfoot -16.0664 -0.280964
rtoes -12.2641
lfemur 24.8789 -3.75726 -28.1546
ltibia 3.49861e-014
lfoot -2.94403 -9.32132
ltoes 14.5281
29
root 7.61939 14.7605 -30.9468 6.247 8.13412 5.39037
lowerback -0.473179 -2.82494 -4.91026
upperback -2.49944 -3.79033 1.25664
thorax -1.9086 -1.79184 4.0763
lowerneck -7.1335 -0.108154 -1.10973
upperneck 11.7987 -0.311958 2.38452
head 4.71328 -0.0565318 0.898364
rclavicle -9.74045e-015 4.77083e-015
rhumerus -61.7895 -11.4465 -72.1494
rradius 26.0404
rwrist 7.43841
rhand -17.6176 -32.5669
rfingers 7.12502
rthumb 8.63933 -62.3701
lclavicle -9.74045e-015 4.77083e-015
lhumerus -7.20653 -27.6323 90.3857
lradius 54.5493
lwrist 16.6615
lhand -23.3112 -20.8383
lfingers 7.12502
lthumb 3.14261 9.11828
rfemur -48.4629 1.16189 12.8562
rtibia 27.2908
rfoot -16.5532 -0.654599
rtoes -9.77408
lfemur 25.7168 -4.25573 -28.0735
ltibia -2.54444e-014
lfoot -2.47347 -9.2505
ltoes 14.9995
